<?xml version="1.0" encoding="UTF-8" standalone="no"?>
<!-- This is a Stata 18.0 generated SVG file (http://www.stata.com) -->

<svg version="1.1" width="7.500in" height="4.500in" viewBox="0 0 5400 3240" xmlns="http://www.w3.org/2000/svg" xmlns:xlink="http://www.w3.org/1999/xlink">
	<desc>Stata Graph - Graph</desc>
	<rect x="0" y="0" width="5400" height="3240" style="fill:#FFFFFF;stroke:none"/>
	<rect x="0.00" y="0.00" width="5400.00" height="3240.00" style="fill:#FFFFFF"/>
	<rect x="3.24" y="3.24" width="5393.52" height="3233.52" style="fill:none;stroke:#FFFFFF;stroke-width:6.48"/>
	<rect x="597.21" y="293.96" width="4689.39" height="2472.69" style="fill:#FFFFFF"/>
	<rect x="600.45" y="297.20" width="4682.91" height="2466.21" style="fill:none;stroke:#FFFFFF;stroke-width:6.48"/>
	<line x1="597.21" y1="2695.28" x2="662.01" y2="2695.28" style="stroke:#F0F0F0;stroke-width:9.72"/>
	<line x1="694.41" y1="2695.28" x2="759.21" y2="2695.28" style="stroke:#F0F0F0;stroke-width:9.72"/>
	<line x1="791.61" y1="2695.28" x2="856.41" y2="2695.28" style="stroke:#F0F0F0;stroke-width:9.72"/>
	<line x1="888.81" y1="2695.28" x2="953.61" y2="2695.28" style="stroke:#F0F0F0;stroke-width:9.72"/>
	<line x1="986.01" y1="2695.28" x2="1050.81" y2="2695.28" style="stroke:#F0F0F0;stroke-width:9.72"/>
	<line x1="1083.21" y1="2695.28" x2="1148.01" y2="2695.28" style="stroke:#F0F0F0;stroke-width:9.72"/>
	<line x1="1180.41" y1="2695.28" x2="1245.21" y2="2695.28" style="stroke:#F0F0F0;stroke-width:9.72"/>
	<line x1="1277.61" y1="2695.28" x2="1342.41" y2="2695.28" style="stroke:#F0F0F0;stroke-width:9.72"/>
	<line x1="1374.81" y1="2695.28" x2="1439.61" y2="2695.28" style="stroke:#F0F0F0;stroke-width:9.72"/>
	<line x1="1472.01" y1="2695.28" x2="1536.81" y2="2695.28" style="stroke:#F0F0F0;stroke-width:9.72"/>
	<line x1="1569.21" y1="2695.28" x2="1634.01" y2="2695.28" style="stroke:#F0F0F0;stroke-width:9.72"/>
	<line x1="1666.41" y1="2695.28" x2="1731.21" y2="2695.28" style="stroke:#F0F0F0;stroke-width:9.72"/>
	<line x1="1763.61" y1="2695.28" x2="1828.41" y2="2695.28" style="stroke:#F0F0F0;stroke-width:9.72"/>
	<line x1="1860.81" y1="2695.28" x2="1925.61" y2="2695.28" style="stroke:#F0F0F0;stroke-width:9.72"/>
	<line x1="1958.01" y1="2695.28" x2="2022.81" y2="2695.28" style="stroke:#F0F0F0;stroke-width:9.72"/>
	<line x1="2055.21" y1="2695.28" x2="2120.01" y2="2695.28" style="stroke:#F0F0F0;stroke-width:9.72"/>
	<line x1="2152.41" y1="2695.28" x2="2217.21" y2="2695.28" style="stroke:#F0F0F0;stroke-width:9.72"/>
	<line x1="2249.61" y1="2695.28" x2="2314.41" y2="2695.28" style="stroke:#F0F0F0;stroke-width:9.72"/>
	<line x1="2346.81" y1="2695.28" x2="2411.61" y2="2695.28" style="stroke:#F0F0F0;stroke-width:9.72"/>
	<line x1="2444.01" y1="2695.28" x2="2508.81" y2="2695.28" style="stroke:#F0F0F0;stroke-width:9.72"/>
	<line x1="2541.21" y1="2695.28" x2="2606.01" y2="2695.28" style="stroke:#F0F0F0;stroke-width:9.72"/>
	<line x1="2638.41" y1="2695.28" x2="2703.21" y2="2695.28" style="stroke:#F0F0F0;stroke-width:9.72"/>
	<line x1="2735.61" y1="2695.28" x2="2800.41" y2="2695.28" style="stroke:#F0F0F0;stroke-width:9.72"/>
	<line x1="2832.81" y1="2695.28" x2="2897.61" y2="2695.28" style="stroke:#F0F0F0;stroke-width:9.72"/>
	<line x1="2930.01" y1="2695.28" x2="2994.81" y2="2695.28" style="stroke:#F0F0F0;stroke-width:9.72"/>
	<line x1="3027.21" y1="2695.28" x2="3092.01" y2="2695.28" style="stroke:#F0F0F0;stroke-width:9.72"/>
	<line x1="3124.41" y1="2695.28" x2="3189.21" y2="2695.28" style="stroke:#F0F0F0;stroke-width:9.72"/>
	<line x1="3221.61" y1="2695.28" x2="3286.41" y2="2695.28" style="stroke:#F0F0F0;stroke-width:9.72"/>
	<line x1="3318.81" y1="2695.28" x2="3383.61" y2="2695.28" style="stroke:#F0F0F0;stroke-width:9.72"/>
	<line x1="3416.01" y1="2695.28" x2="3480.81" y2="2695.28" style="stroke:#F0F0F0;stroke-width:9.72"/>
	<line x1="3513.21" y1="2695.28" x2="3578.01" y2="2695.28" style="stroke:#F0F0F0;stroke-width:9.72"/>
	<line x1="3610.41" y1="2695.28" x2="3675.21" y2="2695.28" style="stroke:#F0F0F0;stroke-width:9.72"/>
	<line x1="3707.61" y1="2695.28" x2="3772.41" y2="2695.28" style="stroke:#F0F0F0;stroke-width:9.72"/>
	<line x1="3804.81" y1="2695.28" x2="3869.61" y2="2695.28" style="stroke:#F0F0F0;stroke-width:9.72"/>
	<line x1="3902.01" y1="2695.28" x2="3966.81" y2="2695.28" style="stroke:#F0F0F0;stroke-width:9.72"/>
	<line x1="3999.21" y1="2695.28" x2="4064.01" y2="2695.28" style="stroke:#F0F0F0;stroke-width:9.72"/>
	<line x1="4096.41" y1="2695.28" x2="4161.21" y2="2695.28" style="stroke:#F0F0F0;stroke-width:9.72"/>
	<line x1="4193.61" y1="2695.28" x2="4258.41" y2="2695.28" style="stroke:#F0F0F0;stroke-width:9.72"/>
	<line x1="4290.81" y1="2695.28" x2="4355.61" y2="2695.28" style="stroke:#F0F0F0;stroke-width:9.72"/>
	<line x1="4388.01" y1="2695.28" x2="4452.81" y2="2695.28" style="stroke:#F0F0F0;stroke-width:9.72"/>
	<line x1="4485.21" y1="2695.28" x2="4550.01" y2="2695.28" style="stroke:#F0F0F0;stroke-width:9.72"/>
	<line x1="4582.41" y1="2695.28" x2="4647.21" y2="2695.28" style="stroke:#F0F0F0;stroke-width:9.72"/>
	<line x1="4679.61" y1="2695.28" x2="4744.41" y2="2695.28" style="stroke:#F0F0F0;stroke-width:9.72"/>
	<line x1="4776.81" y1="2695.28" x2="4841.61" y2="2695.28" style="stroke:#F0F0F0;stroke-width:9.72"/>
	<line x1="4874.01" y1="2695.28" x2="4938.81" y2="2695.28" style="stroke:#F0F0F0;stroke-width:9.72"/>
	<line x1="4971.21" y1="2695.28" x2="5036.01" y2="2695.28" style="stroke:#F0F0F0;stroke-width:9.72"/>
	<line x1="5068.41" y1="2695.28" x2="5133.21" y2="2695.28" style="stroke:#F0F0F0;stroke-width:9.72"/>
	<line x1="5165.61" y1="2695.28" x2="5230.41" y2="2695.28" style="stroke:#F0F0F0;stroke-width:9.72"/>
	<line x1="5262.81" y1="2695.28" x2="5286.60" y2="2695.28" style="stroke:#F0F0F0;stroke-width:9.72"/>
	<line x1="597.21" y1="1918.69" x2="662.01" y2="1918.69" style="stroke:#F0F0F0;stroke-width:9.72"/>
	<line x1="694.41" y1="1918.69" x2="759.21" y2="1918.69" style="stroke:#F0F0F0;stroke-width:9.72"/>
	<line x1="791.61" y1="1918.69" x2="856.41" y2="1918.69" style="stroke:#F0F0F0;stroke-width:9.72"/>
	<line x1="888.81" y1="1918.69" x2="953.61" y2="1918.69" style="stroke:#F0F0F0;stroke-width:9.72"/>
	<line x1="986.01" y1="1918.69" x2="1050.81" y2="1918.69" style="stroke:#F0F0F0;stroke-width:9.72"/>
	<line x1="1083.21" y1="1918.69" x2="1148.01" y2="1918.69" style="stroke:#F0F0F0;stroke-width:9.72"/>
	<line x1="1180.41" y1="1918.69" x2="1245.21" y2="1918.69" style="stroke:#F0F0F0;stroke-width:9.72"/>
	<line x1="1277.61" y1="1918.69" x2="1342.41" y2="1918.69" style="stroke:#F0F0F0;stroke-width:9.72"/>
	<line x1="1374.81" y1="1918.69" x2="1439.61" y2="1918.69" style="stroke:#F0F0F0;stroke-width:9.72"/>
	<line x1="1472.01" y1="1918.69" x2="1536.81" y2="1918.69" style="stroke:#F0F0F0;stroke-width:9.72"/>
	<line x1="1569.21" y1="1918.69" x2="1634.01" y2="1918.69" style="stroke:#F0F0F0;stroke-width:9.72"/>
	<line x1="1666.41" y1="1918.69" x2="1731.21" y2="1918.69" style="stroke:#F0F0F0;stroke-width:9.72"/>
	<line x1="1763.61" y1="1918.69" x2="1828.41" y2="1918.69" style="stroke:#F0F0F0;stroke-width:9.72"/>
	<line x1="1860.81" y1="1918.69" x2="1925.61" y2="1918.69" style="stroke:#F0F0F0;stroke-width:9.72"/>
	<line x1="1958.01" y1="1918.69" x2="2022.81" y2="1918.69" style="stroke:#F0F0F0;stroke-width:9.72"/>
	<line x1="2055.21" y1="1918.69" x2="2120.01" y2="1918.69" style="stroke:#F0F0F0;stroke-width:9.72"/>
	<line x1="2152.41" y1="1918.69" x2="2217.21" y2="1918.69" style="stroke:#F0F0F0;stroke-width:9.72"/>
	<line x1="2249.61" y1="1918.69" x2="2314.41" y2="1918.69" style="stroke:#F0F0F0;stroke-width:9.72"/>
	<line x1="2346.81" y1="1918.69" x2="2411.61" y2="1918.69" style="stroke:#F0F0F0;stroke-width:9.72"/>
	<line x1="2444.01" y1="1918.69" x2="2508.81" y2="1918.69" style="stroke:#F0F0F0;stroke-width:9.72"/>
	<line x1="2541.21" y1="1918.69" x2="2606.01" y2="1918.69" style="stroke:#F0F0F0;stroke-width:9.72"/>
	<line x1="2638.41" y1="1918.69" x2="2703.21" y2="1918.69" style="stroke:#F0F0F0;stroke-width:9.72"/>
	<line x1="2735.61" y1="1918.69" x2="2800.41" y2="1918.69" style="stroke:#F0F0F0;stroke-width:9.72"/>
	<line x1="2832.81" y1="1918.69" x2="2897.61" y2="1918.69" style="stroke:#F0F0F0;stroke-width:9.72"/>
	<line x1="2930.01" y1="1918.69" x2="2994.81" y2="1918.69" style="stroke:#F0F0F0;stroke-width:9.72"/>
	<line x1="3027.21" y1="1918.69" x2="3092.01" y2="1918.69" style="stroke:#F0F0F0;stroke-width:9.72"/>
	<line x1="3124.41" y1="1918.69" x2="3189.21" y2="1918.69" style="stroke:#F0F0F0;stroke-width:9.72"/>
	<line x1="3221.61" y1="1918.69" x2="3286.41" y2="1918.69" style="stroke:#F0F0F0;stroke-width:9.72"/>
	<line x1="3318.81" y1="1918.69" x2="3383.61" y2="1918.69" style="stroke:#F0F0F0;stroke-width:9.72"/>
	<line x1="3416.01" y1="1918.69" x2="3480.81" y2="1918.69" style="stroke:#F0F0F0;stroke-width:9.72"/>
	<line x1="3513.21" y1="1918.69" x2="3578.01" y2="1918.69" style="stroke:#F0F0F0;stroke-width:9.72"/>
	<line x1="3610.41" y1="1918.69" x2="3675.21" y2="1918.69" style="stroke:#F0F0F0;stroke-width:9.72"/>
	<line x1="3707.61" y1="1918.69" x2="3772.41" y2="1918.69" style="stroke:#F0F0F0;stroke-width:9.72"/>
	<line x1="3804.81" y1="1918.69" x2="3869.61" y2="1918.69" style="stroke:#F0F0F0;stroke-width:9.72"/>
	<line x1="3902.01" y1="1918.69" x2="3966.81" y2="1918.69" style="stroke:#F0F0F0;stroke-width:9.72"/>
	<line x1="3999.21" y1="1918.69" x2="4064.01" y2="1918.69" style="stroke:#F0F0F0;stroke-width:9.72"/>
	<line x1="4096.41" y1="1918.69" x2="4161.21" y2="1918.69" style="stroke:#F0F0F0;stroke-width:9.72"/>
	<line x1="4193.61" y1="1918.69" x2="4258.41" y2="1918.69" style="stroke:#F0F0F0;stroke-width:9.72"/>
	<line x1="4290.81" y1="1918.69" x2="4355.61" y2="1918.69" style="stroke:#F0F0F0;stroke-width:9.72"/>
	<line x1="4388.01" y1="1918.69" x2="4452.81" y2="1918.69" style="stroke:#F0F0F0;stroke-width:9.72"/>
	<line x1="4485.21" y1="1918.69" x2="4550.01" y2="1918.69" style="stroke:#F0F0F0;stroke-width:9.72"/>
	<line x1="4582.41" y1="1918.69" x2="4647.21" y2="1918.69" style="stroke:#F0F0F0;stroke-width:9.72"/>
	<line x1="4679.61" y1="1918.69" x2="4744.41" y2="1918.69" style="stroke:#F0F0F0;stroke-width:9.72"/>
	<line x1="4776.81" y1="1918.69" x2="4841.61" y2="1918.69" style="stroke:#F0F0F0;stroke-width:9.72"/>
	<line x1="4874.01" y1="1918.69" x2="4938.81" y2="1918.69" style="stroke:#F0F0F0;stroke-width:9.72"/>
	<line x1="4971.21" y1="1918.69" x2="5036.01" y2="1918.69" style="stroke:#F0F0F0;stroke-width:9.72"/>
	<line x1="5068.41" y1="1918.69" x2="5133.21" y2="1918.69" style="stroke:#F0F0F0;stroke-width:9.72"/>
	<line x1="5165.61" y1="1918.69" x2="5230.41" y2="1918.69" style="stroke:#F0F0F0;stroke-width:9.72"/>
	<line x1="5262.81" y1="1918.69" x2="5286.60" y2="1918.69" style="stroke:#F0F0F0;stroke-width:9.72"/>
	<line x1="597.21" y1="1141.93" x2="662.01" y2="1141.93" style="stroke:#F0F0F0;stroke-width:9.72"/>
	<line x1="694.41" y1="1141.93" x2="759.21" y2="1141.93" style="stroke:#F0F0F0;stroke-width:9.72"/>
	<line x1="791.61" y1="1141.93" x2="856.41" y2="1141.93" style="stroke:#F0F0F0;stroke-width:9.72"/>
	<line x1="888.81" y1="1141.93" x2="953.61" y2="1141.93" style="stroke:#F0F0F0;stroke-width:9.72"/>
	<line x1="986.01" y1="1141.93" x2="1050.81" y2="1141.93" style="stroke:#F0F0F0;stroke-width:9.72"/>
	<line x1="1083.21" y1="1141.93" x2="1148.01" y2="1141.93" style="stroke:#F0F0F0;stroke-width:9.72"/>
	<line x1="1180.41" y1="1141.93" x2="1245.21" y2="1141.93" style="stroke:#F0F0F0;stroke-width:9.72"/>
	<line x1="1277.61" y1="1141.93" x2="1342.41" y2="1141.93" style="stroke:#F0F0F0;stroke-width:9.72"/>
	<line x1="1374.81" y1="1141.93" x2="1439.61" y2="1141.93" style="stroke:#F0F0F0;stroke-width:9.72"/>
	<line x1="1472.01" y1="1141.93" x2="1536.81" y2="1141.93" style="stroke:#F0F0F0;stroke-width:9.72"/>
	<line x1="1569.21" y1="1141.93" x2="1634.01" y2="1141.93" style="stroke:#F0F0F0;stroke-width:9.72"/>
	<line x1="1666.41" y1="1141.93" x2="1731.21" y2="1141.93" style="stroke:#F0F0F0;stroke-width:9.72"/>
	<line x1="1763.61" y1="1141.93" x2="1828.41" y2="1141.93" style="stroke:#F0F0F0;stroke-width:9.72"/>
	<line x1="1860.81" y1="1141.93" x2="1925.61" y2="1141.93" style="stroke:#F0F0F0;stroke-width:9.72"/>
	<line x1="1958.01" y1="1141.93" x2="2022.81" y2="1141.93" style="stroke:#F0F0F0;stroke-width:9.72"/>
	<line x1="2055.21" y1="1141.93" x2="2120.01" y2="1141.93" style="stroke:#F0F0F0;stroke-width:9.72"/>
	<line x1="2152.41" y1="1141.93" x2="2217.21" y2="1141.93" style="stroke:#F0F0F0;stroke-width:9.72"/>
	<line x1="2249.61" y1="1141.93" x2="2314.41" y2="1141.93" style="stroke:#F0F0F0;stroke-width:9.72"/>
	<line x1="2346.81" y1="1141.93" x2="2411.61" y2="1141.93" style="stroke:#F0F0F0;stroke-width:9.72"/>
	<line x1="2444.01" y1="1141.93" x2="2508.81" y2="1141.93" style="stroke:#F0F0F0;stroke-width:9.72"/>
	<line x1="2541.21" y1="1141.93" x2="2606.01" y2="1141.93" style="stroke:#F0F0F0;stroke-width:9.72"/>
	<line x1="2638.41" y1="1141.93" x2="2703.21" y2="1141.93" style="stroke:#F0F0F0;stroke-width:9.72"/>
	<line x1="2735.61" y1="1141.93" x2="2800.41" y2="1141.93" style="stroke:#F0F0F0;stroke-width:9.72"/>
	<line x1="2832.81" y1="1141.93" x2="2897.61" y2="1141.93" style="stroke:#F0F0F0;stroke-width:9.72"/>
	<line x1="2930.01" y1="1141.93" x2="2994.81" y2="1141.93" style="stroke:#F0F0F0;stroke-width:9.72"/>
	<line x1="3027.21" y1="1141.93" x2="3092.01" y2="1141.93" style="stroke:#F0F0F0;stroke-width:9.72"/>
	<line x1="3124.41" y1="1141.93" x2="3189.21" y2="1141.93" style="stroke:#F0F0F0;stroke-width:9.72"/>
	<line x1="3221.61" y1="1141.93" x2="3286.41" y2="1141.93" style="stroke:#F0F0F0;stroke-width:9.72"/>
	<line x1="3318.81" y1="1141.93" x2="3383.61" y2="1141.93" style="stroke:#F0F0F0;stroke-width:9.72"/>
	<line x1="3416.01" y1="1141.93" x2="3480.81" y2="1141.93" style="stroke:#F0F0F0;stroke-width:9.72"/>
	<line x1="3513.21" y1="1141.93" x2="3578.01" y2="1141.93" style="stroke:#F0F0F0;stroke-width:9.72"/>
	<line x1="3610.41" y1="1141.93" x2="3675.21" y2="1141.93" style="stroke:#F0F0F0;stroke-width:9.72"/>
	<line x1="3707.61" y1="1141.93" x2="3772.41" y2="1141.93" style="stroke:#F0F0F0;stroke-width:9.72"/>
	<line x1="3804.81" y1="1141.93" x2="3869.61" y2="1141.93" style="stroke:#F0F0F0;stroke-width:9.72"/>
	<line x1="3902.01" y1="1141.93" x2="3966.81" y2="1141.93" style="stroke:#F0F0F0;stroke-width:9.72"/>
	<line x1="3999.21" y1="1141.93" x2="4064.01" y2="1141.93" style="stroke:#F0F0F0;stroke-width:9.72"/>
	<line x1="4096.41" y1="1141.93" x2="4161.21" y2="1141.93" style="stroke:#F0F0F0;stroke-width:9.72"/>
	<line x1="4193.61" y1="1141.93" x2="4258.41" y2="1141.93" style="stroke:#F0F0F0;stroke-width:9.72"/>
	<line x1="4290.81" y1="1141.93" x2="4355.61" y2="1141.93" style="stroke:#F0F0F0;stroke-width:9.72"/>
	<line x1="4388.01" y1="1141.93" x2="4452.81" y2="1141.93" style="stroke:#F0F0F0;stroke-width:9.72"/>
	<line x1="4485.21" y1="1141.93" x2="4550.01" y2="1141.93" style="stroke:#F0F0F0;stroke-width:9.72"/>
	<line x1="4582.41" y1="1141.93" x2="4647.21" y2="1141.93" style="stroke:#F0F0F0;stroke-width:9.72"/>
	<line x1="4679.61" y1="1141.93" x2="4744.41" y2="1141.93" style="stroke:#F0F0F0;stroke-width:9.72"/>
	<line x1="4776.81" y1="1141.93" x2="4841.61" y2="1141.93" style="stroke:#F0F0F0;stroke-width:9.72"/>
	<line x1="4874.01" y1="1141.93" x2="4938.81" y2="1141.93" style="stroke:#F0F0F0;stroke-width:9.72"/>
	<line x1="4971.21" y1="1141.93" x2="5036.01" y2="1141.93" style="stroke:#F0F0F0;stroke-width:9.72"/>
	<line x1="5068.41" y1="1141.93" x2="5133.21" y2="1141.93" style="stroke:#F0F0F0;stroke-width:9.72"/>
	<line x1="5165.61" y1="1141.93" x2="5230.41" y2="1141.93" style="stroke:#F0F0F0;stroke-width:9.72"/>
	<line x1="5262.81" y1="1141.93" x2="5286.60" y2="1141.93" style="stroke:#F0F0F0;stroke-width:9.72"/>
	<line x1="597.21" y1="365.34" x2="662.01" y2="365.34" style="stroke:#F0F0F0;stroke-width:9.72"/>
	<line x1="694.41" y1="365.34" x2="759.21" y2="365.34" style="stroke:#F0F0F0;stroke-width:9.72"/>
	<line x1="791.61" y1="365.34" x2="856.41" y2="365.34" style="stroke:#F0F0F0;stroke-width:9.72"/>
	<line x1="888.81" y1="365.34" x2="953.61" y2="365.34" style="stroke:#F0F0F0;stroke-width:9.72"/>
	<line x1="986.01" y1="365.34" x2="1050.81" y2="365.34" style="stroke:#F0F0F0;stroke-width:9.72"/>
	<line x1="1083.21" y1="365.34" x2="1148.01" y2="365.34" style="stroke:#F0F0F0;stroke-width:9.72"/>
	<line x1="1180.41" y1="365.34" x2="1245.21" y2="365.34" style="stroke:#F0F0F0;stroke-width:9.72"/>
	<line x1="1277.61" y1="365.34" x2="1342.41" y2="365.34" style="stroke:#F0F0F0;stroke-width:9.72"/>
	<line x1="1374.81" y1="365.34" x2="1439.61" y2="365.34" style="stroke:#F0F0F0;stroke-width:9.72"/>
	<line x1="1472.01" y1="365.34" x2="1536.81" y2="365.34" style="stroke:#F0F0F0;stroke-width:9.72"/>
	<line x1="1569.21" y1="365.34" x2="1634.01" y2="365.34" style="stroke:#F0F0F0;stroke-width:9.72"/>
	<line x1="1666.41" y1="365.34" x2="1731.21" y2="365.34" style="stroke:#F0F0F0;stroke-width:9.72"/>
	<line x1="1763.61" y1="365.34" x2="1828.41" y2="365.34" style="stroke:#F0F0F0;stroke-width:9.72"/>
	<line x1="1860.81" y1="365.34" x2="1925.61" y2="365.34" style="stroke:#F0F0F0;stroke-width:9.72"/>
	<line x1="1958.01" y1="365.34" x2="2022.81" y2="365.34" style="stroke:#F0F0F0;stroke-width:9.72"/>
	<line x1="2055.21" y1="365.34" x2="2120.01" y2="365.34" style="stroke:#F0F0F0;stroke-width:9.72"/>
	<line x1="2152.41" y1="365.34" x2="2217.21" y2="365.34" style="stroke:#F0F0F0;stroke-width:9.72"/>
	<line x1="2249.61" y1="365.34" x2="2314.41" y2="365.34" style="stroke:#F0F0F0;stroke-width:9.72"/>
	<line x1="2346.81" y1="365.34" x2="2411.61" y2="365.34" style="stroke:#F0F0F0;stroke-width:9.72"/>
	<line x1="2444.01" y1="365.34" x2="2508.81" y2="365.34" style="stroke:#F0F0F0;stroke-width:9.72"/>
	<line x1="2541.21" y1="365.34" x2="2606.01" y2="365.34" style="stroke:#F0F0F0;stroke-width:9.72"/>
	<line x1="2638.41" y1="365.34" x2="2703.21" y2="365.34" style="stroke:#F0F0F0;stroke-width:9.72"/>
	<line x1="2735.61" y1="365.34" x2="2800.41" y2="365.34" style="stroke:#F0F0F0;stroke-width:9.72"/>
	<line x1="2832.81" y1="365.34" x2="2897.61" y2="365.34" style="stroke:#F0F0F0;stroke-width:9.72"/>
	<line x1="2930.01" y1="365.34" x2="2994.81" y2="365.34" style="stroke:#F0F0F0;stroke-width:9.72"/>
	<line x1="3027.21" y1="365.34" x2="3092.01" y2="365.34" style="stroke:#F0F0F0;stroke-width:9.72"/>
	<line x1="3124.41" y1="365.34" x2="3189.21" y2="365.34" style="stroke:#F0F0F0;stroke-width:9.72"/>
	<line x1="3221.61" y1="365.34" x2="3286.41" y2="365.34" style="stroke:#F0F0F0;stroke-width:9.72"/>
	<line x1="3318.81" y1="365.34" x2="3383.61" y2="365.34" style="stroke:#F0F0F0;stroke-width:9.72"/>
	<line x1="3416.01" y1="365.34" x2="3480.81" y2="365.34" style="stroke:#F0F0F0;stroke-width:9.72"/>
	<line x1="3513.21" y1="365.34" x2="3578.01" y2="365.34" style="stroke:#F0F0F0;stroke-width:9.72"/>
	<line x1="3610.41" y1="365.34" x2="3675.21" y2="365.34" style="stroke:#F0F0F0;stroke-width:9.72"/>
	<line x1="3707.61" y1="365.34" x2="3772.41" y2="365.34" style="stroke:#F0F0F0;stroke-width:9.72"/>
	<line x1="3804.81" y1="365.34" x2="3869.61" y2="365.34" style="stroke:#F0F0F0;stroke-width:9.72"/>
	<line x1="3902.01" y1="365.34" x2="3966.81" y2="365.34" style="stroke:#F0F0F0;stroke-width:9.72"/>
	<line x1="3999.21" y1="365.34" x2="4064.01" y2="365.34" style="stroke:#F0F0F0;stroke-width:9.72"/>
	<line x1="4096.41" y1="365.34" x2="4161.21" y2="365.34" style="stroke:#F0F0F0;stroke-width:9.72"/>
	<line x1="4193.61" y1="365.34" x2="4258.41" y2="365.34" style="stroke:#F0F0F0;stroke-width:9.72"/>
	<line x1="4290.81" y1="365.34" x2="4355.61" y2="365.34" style="stroke:#F0F0F0;stroke-width:9.72"/>
	<line x1="4388.01" y1="365.34" x2="4452.81" y2="365.34" style="stroke:#F0F0F0;stroke-width:9.72"/>
	<line x1="4485.21" y1="365.34" x2="4550.01" y2="365.34" style="stroke:#F0F0F0;stroke-width:9.72"/>
	<line x1="4582.41" y1="365.34" x2="4647.21" y2="365.34" style="stroke:#F0F0F0;stroke-width:9.72"/>
	<line x1="4679.61" y1="365.34" x2="4744.41" y2="365.34" style="stroke:#F0F0F0;stroke-width:9.72"/>
	<line x1="4776.81" y1="365.34" x2="4841.61" y2="365.34" style="stroke:#F0F0F0;stroke-width:9.72"/>
	<line x1="4874.01" y1="365.34" x2="4938.81" y2="365.34" style="stroke:#F0F0F0;stroke-width:9.72"/>
	<line x1="4971.21" y1="365.34" x2="5036.01" y2="365.34" style="stroke:#F0F0F0;stroke-width:9.72"/>
	<line x1="5068.41" y1="365.34" x2="5133.21" y2="365.34" style="stroke:#F0F0F0;stroke-width:9.72"/>
	<line x1="5165.61" y1="365.34" x2="5230.41" y2="365.34" style="stroke:#F0F0F0;stroke-width:9.72"/>
	<line x1="5262.81" y1="365.34" x2="5286.60" y2="365.34" style="stroke:#F0F0F0;stroke-width:9.72"/>
	<line x1="668.59" y1="2766.66" x2="668.59" y2="2701.86" style="stroke:#F0F0F0;stroke-width:9.72"/>
	<line x1="668.59" y1="2669.46" x2="668.59" y2="2604.66" style="stroke:#F0F0F0;stroke-width:9.72"/>
	<line x1="668.59" y1="2572.26" x2="668.59" y2="2507.46" style="stroke:#F0F0F0;stroke-width:9.72"/>
	<line x1="668.59" y1="2475.06" x2="668.59" y2="2410.26" style="stroke:#F0F0F0;stroke-width:9.72"/>
	<line x1="668.59" y1="2377.86" x2="668.59" y2="2313.06" style="stroke:#F0F0F0;stroke-width:9.72"/>
	<line x1="668.59" y1="2280.66" x2="668.59" y2="2215.86" style="stroke:#F0F0F0;stroke-width:9.72"/>
	<line x1="668.59" y1="2183.46" x2="668.59" y2="2118.66" style="stroke:#F0F0F0;stroke-width:9.72"/>
	<line x1="668.59" y1="2086.26" x2="668.59" y2="2021.46" style="stroke:#F0F0F0;stroke-width:9.72"/>
	<line x1="668.59" y1="1989.06" x2="668.59" y2="1924.26" style="stroke:#F0F0F0;stroke-width:9.72"/>
	<line x1="668.59" y1="1891.86" x2="668.59" y2="1827.06" style="stroke:#F0F0F0;stroke-width:9.72"/>
	<line x1="668.59" y1="1794.66" x2="668.59" y2="1729.86" style="stroke:#F0F0F0;stroke-width:9.72"/>
	<line x1="668.59" y1="1697.46" x2="668.59" y2="1632.66" style="stroke:#F0F0F0;stroke-width:9.72"/>
	<line x1="668.59" y1="1600.26" x2="668.59" y2="1535.46" style="stroke:#F0F0F0;stroke-width:9.72"/>
	<line x1="668.59" y1="1503.06" x2="668.59" y2="1438.26" style="stroke:#F0F0F0;stroke-width:9.72"/>
	<line x1="668.59" y1="1405.86" x2="668.59" y2="1341.06" style="stroke:#F0F0F0;stroke-width:9.72"/>
	<line x1="668.59" y1="1308.66" x2="668.59" y2="1243.86" style="stroke:#F0F0F0;stroke-width:9.72"/>
	<line x1="668.59" y1="1211.46" x2="668.59" y2="1146.66" style="stroke:#F0F0F0;stroke-width:9.72"/>
	<line x1="668.59" y1="1114.26" x2="668.59" y2="1049.46" style="stroke:#F0F0F0;stroke-width:9.72"/>
	<line x1="668.59" y1="1017.06" x2="668.59" y2="952.26" style="stroke:#F0F0F0;stroke-width:9.72"/>
	<line x1="668.59" y1="919.86" x2="668.59" y2="855.06" style="stroke:#F0F0F0;stroke-width:9.72"/>
	<line x1="668.59" y1="822.66" x2="668.59" y2="757.86" style="stroke:#F0F0F0;stroke-width:9.72"/>
	<line x1="668.59" y1="725.46" x2="668.59" y2="660.66" style="stroke:#F0F0F0;stroke-width:9.72"/>
	<line x1="668.59" y1="628.26" x2="668.59" y2="563.46" style="stroke:#F0F0F0;stroke-width:9.72"/>
	<line x1="668.59" y1="531.06" x2="668.59" y2="466.26" style="stroke:#F0F0F0;stroke-width:9.72"/>
	<line x1="668.59" y1="433.86" x2="668.59" y2="369.06" style="stroke:#F0F0F0;stroke-width:9.72"/>
	<line x1="668.59" y1="336.66" x2="668.59" y2="293.96" style="stroke:#F0F0F0;stroke-width:9.72"/>
	<line x1="2941.99" y1="2766.66" x2="2941.99" y2="2701.86" style="stroke:#F0F0F0;stroke-width:9.72"/>
	<line x1="2941.99" y1="2669.46" x2="2941.99" y2="2604.66" style="stroke:#F0F0F0;stroke-width:9.72"/>
	<line x1="2941.99" y1="2572.26" x2="2941.99" y2="2507.46" style="stroke:#F0F0F0;stroke-width:9.72"/>
	<line x1="2941.99" y1="2475.06" x2="2941.99" y2="2410.26" style="stroke:#F0F0F0;stroke-width:9.72"/>
	<line x1="2941.99" y1="2377.86" x2="2941.99" y2="2313.06" style="stroke:#F0F0F0;stroke-width:9.72"/>
	<line x1="2941.99" y1="2280.66" x2="2941.99" y2="2215.86" style="stroke:#F0F0F0;stroke-width:9.72"/>
	<line x1="2941.99" y1="2183.46" x2="2941.99" y2="2118.66" style="stroke:#F0F0F0;stroke-width:9.72"/>
	<line x1="2941.99" y1="2086.26" x2="2941.99" y2="2021.46" style="stroke:#F0F0F0;stroke-width:9.72"/>
	<line x1="2941.99" y1="1989.06" x2="2941.99" y2="1924.26" style="stroke:#F0F0F0;stroke-width:9.72"/>
	<line x1="2941.99" y1="1891.86" x2="2941.99" y2="1827.06" style="stroke:#F0F0F0;stroke-width:9.72"/>
	<line x1="2941.99" y1="1794.66" x2="2941.99" y2="1729.86" style="stroke:#F0F0F0;stroke-width:9.72"/>
	<line x1="2941.99" y1="1697.46" x2="2941.99" y2="1632.66" style="stroke:#F0F0F0;stroke-width:9.72"/>
	<line x1="2941.99" y1="1600.26" x2="2941.99" y2="1535.46" style="stroke:#F0F0F0;stroke-width:9.72"/>
	<line x1="2941.99" y1="1503.06" x2="2941.99" y2="1438.26" style="stroke:#F0F0F0;stroke-width:9.72"/>
	<line x1="2941.99" y1="1405.86" x2="2941.99" y2="1341.06" style="stroke:#F0F0F0;stroke-width:9.72"/>
	<line x1="2941.99" y1="1308.66" x2="2941.99" y2="1243.86" style="stroke:#F0F0F0;stroke-width:9.72"/>
	<line x1="2941.99" y1="1211.46" x2="2941.99" y2="1146.66" style="stroke:#F0F0F0;stroke-width:9.72"/>
	<line x1="2941.99" y1="1114.26" x2="2941.99" y2="1049.46" style="stroke:#F0F0F0;stroke-width:9.72"/>
	<line x1="2941.99" y1="1017.06" x2="2941.99" y2="952.26" style="stroke:#F0F0F0;stroke-width:9.72"/>
	<line x1="2941.99" y1="919.86" x2="2941.99" y2="855.06" style="stroke:#F0F0F0;stroke-width:9.72"/>
	<line x1="2941.99" y1="822.66" x2="2941.99" y2="757.86" style="stroke:#F0F0F0;stroke-width:9.72"/>
	<line x1="2941.99" y1="725.46" x2="2941.99" y2="660.66" style="stroke:#F0F0F0;stroke-width:9.72"/>
	<line x1="2941.99" y1="628.26" x2="2941.99" y2="563.46" style="stroke:#F0F0F0;stroke-width:9.72"/>
	<line x1="2941.99" y1="531.06" x2="2941.99" y2="466.26" style="stroke:#F0F0F0;stroke-width:9.72"/>
	<line x1="2941.99" y1="433.86" x2="2941.99" y2="369.06" style="stroke:#F0F0F0;stroke-width:9.72"/>
	<line x1="2941.99" y1="336.66" x2="2941.99" y2="293.96" style="stroke:#F0F0F0;stroke-width:9.72"/>
	<line x1="5215.39" y1="2766.66" x2="5215.39" y2="2701.86" style="stroke:#F0F0F0;stroke-width:9.72"/>
	<line x1="5215.39" y1="2669.46" x2="5215.39" y2="2604.66" style="stroke:#F0F0F0;stroke-width:9.72"/>
	<line x1="5215.39" y1="2572.26" x2="5215.39" y2="2507.46" style="stroke:#F0F0F0;stroke-width:9.72"/>
	<line x1="5215.39" y1="2475.06" x2="5215.39" y2="2410.26" style="stroke:#F0F0F0;stroke-width:9.72"/>
	<line x1="5215.39" y1="2377.86" x2="5215.39" y2="2313.06" style="stroke:#F0F0F0;stroke-width:9.72"/>
	<line x1="5215.39" y1="2280.66" x2="5215.39" y2="2215.86" style="stroke:#F0F0F0;stroke-width:9.72"/>
	<line x1="5215.39" y1="2183.46" x2="5215.39" y2="2118.66" style="stroke:#F0F0F0;stroke-width:9.72"/>
	<line x1="5215.39" y1="2086.26" x2="5215.39" y2="2021.46" style="stroke:#F0F0F0;stroke-width:9.72"/>
	<line x1="5215.39" y1="1989.06" x2="5215.39" y2="1924.26" style="stroke:#F0F0F0;stroke-width:9.72"/>
	<line x1="5215.39" y1="1891.86" x2="5215.39" y2="1827.06" style="stroke:#F0F0F0;stroke-width:9.72"/>
	<line x1="5215.39" y1="1794.66" x2="5215.39" y2="1729.86" style="stroke:#F0F0F0;stroke-width:9.72"/>
	<line x1="5215.39" y1="1697.46" x2="5215.39" y2="1632.66" style="stroke:#F0F0F0;stroke-width:9.72"/>
	<line x1="5215.39" y1="1600.26" x2="5215.39" y2="1535.46" style="stroke:#F0F0F0;stroke-width:9.72"/>
	<line x1="5215.39" y1="1503.06" x2="5215.39" y2="1438.26" style="stroke:#F0F0F0;stroke-width:9.72"/>
	<line x1="5215.39" y1="1405.86" x2="5215.39" y2="1341.06" style="stroke:#F0F0F0;stroke-width:9.72"/>
	<line x1="5215.39" y1="1308.66" x2="5215.39" y2="1243.86" style="stroke:#F0F0F0;stroke-width:9.72"/>
	<line x1="5215.39" y1="1211.46" x2="5215.39" y2="1146.66" style="stroke:#F0F0F0;stroke-width:9.72"/>
	<line x1="5215.39" y1="1114.26" x2="5215.39" y2="1049.46" style="stroke:#F0F0F0;stroke-width:9.72"/>
	<line x1="5215.39" y1="1017.06" x2="5215.39" y2="952.26" style="stroke:#F0F0F0;stroke-width:9.72"/>
	<line x1="5215.39" y1="919.86" x2="5215.39" y2="855.06" style="stroke:#F0F0F0;stroke-width:9.72"/>
	<line x1="5215.39" y1="822.66" x2="5215.39" y2="757.86" style="stroke:#F0F0F0;stroke-width:9.72"/>
	<line x1="5215.39" y1="725.46" x2="5215.39" y2="660.66" style="stroke:#F0F0F0;stroke-width:9.72"/>
	<line x1="5215.39" y1="628.26" x2="5215.39" y2="563.46" style="stroke:#F0F0F0;stroke-width:9.72"/>
	<line x1="5215.39" y1="531.06" x2="5215.39" y2="466.26" style="stroke:#F0F0F0;stroke-width:9.72"/>
	<line x1="5215.39" y1="433.86" x2="5215.39" y2="369.06" style="stroke:#F0F0F0;stroke-width:9.72"/>
	<line x1="5215.39" y1="336.66" x2="5215.39" y2="293.96" style="stroke:#F0F0F0;stroke-width:9.72"/>
	<line x1="668.59" y1="2506.28" x2="668.59" y2="1360.13" style="stroke:#1A85FF;stroke-width:9.72"/>
	<line x1="651.71" y1="1360.13" x2="685.46" y2="1360.13" stroke-linecap="round" style="stroke:#1A85FF;stroke-width:9.72"/>
	<line x1="651.71" y1="2506.28" x2="685.46" y2="2506.28" stroke-linecap="round" style="stroke:#1A85FF;stroke-width:9.72"/>
	<line x1="2941.99" y1="1244.19" x2="2941.99" y2="704.70" style="stroke:#1A85FF;stroke-width:9.72"/>
	<line x1="2925.11" y1="704.70" x2="2958.86" y2="704.70" stroke-linecap="round" style="stroke:#1A85FF;stroke-width:9.72"/>
	<line x1="2925.11" y1="1244.19" x2="2958.86" y2="1244.19" stroke-linecap="round" style="stroke:#1A85FF;stroke-width:9.72"/>
	<line x1="5215.39" y1="2664.56" x2="5215.39" y2="1299.71" style="stroke:#1A85FF;stroke-width:9.72"/>
	<line x1="5198.51" y1="1299.71" x2="5232.26" y2="1299.71" stroke-linecap="round" style="stroke:#1A85FF;stroke-width:9.72"/>
	<line x1="5198.51" y1="2664.56" x2="5232.26" y2="2664.56" stroke-linecap="round" style="stroke:#1A85FF;stroke-width:9.72"/>
	<path d=" M668.42 1933.37 L2941.82 974.53 L5215.22 1982.31" stroke-linejoin="round" style="fill:none;stroke:#1A85FF;stroke-width:9.72"/>
	<circle cx="668.42" cy="1933.37" r="21.74" style="fill:#1A85FF"/>
	<circle cx="668.42" cy="1933.37" r="16.88" style="fill:none;stroke:#1A85FF;stroke-width:9.72"/>
	<circle cx="2941.82" cy="974.53" r="21.74" style="fill:#1A85FF"/>
	<circle cx="2941.82" cy="974.53" r="16.88" style="fill:none;stroke:#1A85FF;stroke-width:9.72"/>
	<circle cx="5215.22" cy="1982.31" r="21.74" style="fill:#1A85FF"/>
	<circle cx="5215.22" cy="1982.31" r="16.88" style="fill:none;stroke:#1A85FF;stroke-width:9.72"/>
	<line x1="597.21" y1="2766.66" x2="597.21" y2="293.96" style="stroke:#000000;stroke-width:6.48"/>
	<line x1="597.21" y1="2695.28" x2="552.32" y2="2695.28" style="stroke:#000000;stroke-width:6.48"/>
	<text x="529.71" y="2734.71" style="font-family:'Helvetica';font-size:112.56px;fill:#000000" text-anchor="end">-.1</text>
	<line x1="597.21" y1="1918.69" x2="552.32" y2="1918.69" style="stroke:#000000;stroke-width:6.48"/>
	<text x="529.71" y="1958.12" style="font-family:'Helvetica';font-size:112.56px;fill:#000000" text-anchor="end">-.05</text>
	<line x1="597.21" y1="1141.93" x2="552.32" y2="1141.93" style="stroke:#000000;stroke-width:6.48"/>
	<text x="529.71" y="1181.37" style="font-family:'Helvetica';font-size:112.56px;fill:#000000" text-anchor="end">0</text>
	<line x1="597.21" y1="365.34" x2="552.32" y2="365.34" style="stroke:#000000;stroke-width:6.48"/>
	<text x="529.71" y="404.78" style="font-family:'Helvetica';font-size:112.56px;fill:#000000" text-anchor="end">.05</text>
	<text x="214.55" y="1530.39" style="font-family:'Helvetica';font-size:112.56px;fill:#000000" transform="rotate(-90 214.55,1530.39)" text-anchor="middle">Cambio en Pr(Supervivencia)</text>
	<line x1="597.21" y1="2766.66" x2="5286.60" y2="2766.66" style="stroke:#000000;stroke-width:6.48"/>
	<line x1="668.59" y1="2766.66" x2="668.59" y2="2811.54" style="stroke:#000000;stroke-width:6.48"/>
	<text x="668.59" y="2912.86" style="font-family:'Helvetica';font-size:112.56px;fill:#000000" text-anchor="middle">Costa</text>
	<line x1="2941.99" y1="2766.66" x2="2941.99" y2="2811.54" style="stroke:#000000;stroke-width:6.48"/>
	<text x="2941.99" y="2912.86" style="font-family:'Helvetica';font-size:112.56px;fill:#000000" text-anchor="middle">Sierra</text>
	<line x1="5215.39" y1="2766.66" x2="5215.39" y2="2811.54" style="stroke:#000000;stroke-width:6.48"/>
	<text x="5215.39" y="2912.86" style="font-family:'Helvetica';font-size:112.56px;fill:#000000" text-anchor="middle">Selva</text>
	<text x="2941.99" y="3070.31" style="font-family:'Helvetica';font-size:112.56px;fill:#000000" text-anchor="middle">Región</text>
	<text x="2700.00" y="231.95" style="font-family:'Helvetica';font-size:141.75px;fill:#000000" text-anchor="middle">Efecto marginal de RUC por región</text>
</svg>
