<?xml version="1.0" encoding="UTF-8" standalone="no"?>
<!-- This is a Stata 18.0 generated SVG file (http://www.stata.com) -->

<svg version="1.1" width="7.500in" height="4.500in" viewBox="0 0 5400 3240" xmlns="http://www.w3.org/2000/svg" xmlns:xlink="http://www.w3.org/1999/xlink">
	<desc>Stata Graph - Graph</desc>
	<rect x="0" y="0" width="5400" height="3240" style="fill:#FFFFFF;stroke:none"/>
	<rect x="0.00" y="0.00" width="5400.00" height="3240.00" style="fill:#FFFFFF"/>
	<rect x="3.24" y="3.24" width="5393.52" height="3233.52" style="fill:none;stroke:#FFFFFF;stroke-width:6.48"/>
	<rect x="492.24" y="293.96" width="4794.36" height="957.82" style="fill:#FFFFFF"/>
	<rect x="495.48" y="297.20" width="4787.88" height="951.34" style="fill:none;stroke:#FFFFFF;stroke-width:6.48"/>
	<line x1="492.24" y1="1180.41" x2="557.04" y2="1180.41" style="stroke:#F0F0F0;stroke-width:9.72"/>
	<line x1="589.44" y1="1180.41" x2="654.24" y2="1180.41" style="stroke:#F0F0F0;stroke-width:9.72"/>
	<line x1="686.64" y1="1180.41" x2="751.44" y2="1180.41" style="stroke:#F0F0F0;stroke-width:9.72"/>
	<line x1="783.84" y1="1180.41" x2="848.64" y2="1180.41" style="stroke:#F0F0F0;stroke-width:9.72"/>
	<line x1="881.04" y1="1180.41" x2="945.84" y2="1180.41" style="stroke:#F0F0F0;stroke-width:9.72"/>
	<line x1="978.24" y1="1180.41" x2="1043.04" y2="1180.41" style="stroke:#F0F0F0;stroke-width:9.72"/>
	<line x1="1075.44" y1="1180.41" x2="1140.24" y2="1180.41" style="stroke:#F0F0F0;stroke-width:9.72"/>
	<line x1="1172.64" y1="1180.41" x2="1237.44" y2="1180.41" style="stroke:#F0F0F0;stroke-width:9.72"/>
	<line x1="1269.84" y1="1180.41" x2="1334.64" y2="1180.41" style="stroke:#F0F0F0;stroke-width:9.72"/>
	<line x1="1367.04" y1="1180.41" x2="1431.84" y2="1180.41" style="stroke:#F0F0F0;stroke-width:9.72"/>
	<line x1="1464.24" y1="1180.41" x2="1529.04" y2="1180.41" style="stroke:#F0F0F0;stroke-width:9.72"/>
	<line x1="1561.44" y1="1180.41" x2="1626.24" y2="1180.41" style="stroke:#F0F0F0;stroke-width:9.72"/>
	<line x1="1658.64" y1="1180.41" x2="1723.44" y2="1180.41" style="stroke:#F0F0F0;stroke-width:9.72"/>
	<line x1="1755.84" y1="1180.41" x2="1820.64" y2="1180.41" style="stroke:#F0F0F0;stroke-width:9.72"/>
	<line x1="1853.04" y1="1180.41" x2="1917.84" y2="1180.41" style="stroke:#F0F0F0;stroke-width:9.72"/>
	<line x1="1950.24" y1="1180.41" x2="2015.04" y2="1180.41" style="stroke:#F0F0F0;stroke-width:9.72"/>
	<line x1="2047.44" y1="1180.41" x2="2112.24" y2="1180.41" style="stroke:#F0F0F0;stroke-width:9.72"/>
	<line x1="2144.64" y1="1180.41" x2="2209.44" y2="1180.41" style="stroke:#F0F0F0;stroke-width:9.72"/>
	<line x1="2241.84" y1="1180.41" x2="2306.64" y2="1180.41" style="stroke:#F0F0F0;stroke-width:9.72"/>
	<line x1="2339.04" y1="1180.41" x2="2403.84" y2="1180.41" style="stroke:#F0F0F0;stroke-width:9.72"/>
	<line x1="2436.24" y1="1180.41" x2="2501.04" y2="1180.41" style="stroke:#F0F0F0;stroke-width:9.72"/>
	<line x1="2533.44" y1="1180.41" x2="2598.24" y2="1180.41" style="stroke:#F0F0F0;stroke-width:9.72"/>
	<line x1="2630.64" y1="1180.41" x2="2695.44" y2="1180.41" style="stroke:#F0F0F0;stroke-width:9.72"/>
	<line x1="2727.84" y1="1180.41" x2="2792.64" y2="1180.41" style="stroke:#F0F0F0;stroke-width:9.72"/>
	<line x1="2825.04" y1="1180.41" x2="2889.84" y2="1180.41" style="stroke:#F0F0F0;stroke-width:9.72"/>
	<line x1="2922.24" y1="1180.41" x2="2987.04" y2="1180.41" style="stroke:#F0F0F0;stroke-width:9.72"/>
	<line x1="3019.44" y1="1180.41" x2="3084.24" y2="1180.41" style="stroke:#F0F0F0;stroke-width:9.72"/>
	<line x1="3116.64" y1="1180.41" x2="3181.44" y2="1180.41" style="stroke:#F0F0F0;stroke-width:9.72"/>
	<line x1="3213.84" y1="1180.41" x2="3278.64" y2="1180.41" style="stroke:#F0F0F0;stroke-width:9.72"/>
	<line x1="3311.04" y1="1180.41" x2="3375.84" y2="1180.41" style="stroke:#F0F0F0;stroke-width:9.72"/>
	<line x1="3408.24" y1="1180.41" x2="3473.04" y2="1180.41" style="stroke:#F0F0F0;stroke-width:9.72"/>
	<line x1="3505.44" y1="1180.41" x2="3570.24" y2="1180.41" style="stroke:#F0F0F0;stroke-width:9.72"/>
	<line x1="3602.64" y1="1180.41" x2="3667.44" y2="1180.41" style="stroke:#F0F0F0;stroke-width:9.72"/>
	<line x1="3699.84" y1="1180.41" x2="3764.64" y2="1180.41" style="stroke:#F0F0F0;stroke-width:9.72"/>
	<line x1="3797.04" y1="1180.41" x2="3861.84" y2="1180.41" style="stroke:#F0F0F0;stroke-width:9.72"/>
	<line x1="3894.24" y1="1180.41" x2="3959.04" y2="1180.41" style="stroke:#F0F0F0;stroke-width:9.72"/>
	<line x1="3991.44" y1="1180.41" x2="4056.24" y2="1180.41" style="stroke:#F0F0F0;stroke-width:9.72"/>
	<line x1="4088.64" y1="1180.41" x2="4153.44" y2="1180.41" style="stroke:#F0F0F0;stroke-width:9.72"/>
	<line x1="4185.84" y1="1180.41" x2="4250.64" y2="1180.41" style="stroke:#F0F0F0;stroke-width:9.72"/>
	<line x1="4283.04" y1="1180.41" x2="4347.84" y2="1180.41" style="stroke:#F0F0F0;stroke-width:9.72"/>
	<line x1="4380.24" y1="1180.41" x2="4445.04" y2="1180.41" style="stroke:#F0F0F0;stroke-width:9.72"/>
	<line x1="4477.44" y1="1180.41" x2="4542.24" y2="1180.41" style="stroke:#F0F0F0;stroke-width:9.72"/>
	<line x1="4574.64" y1="1180.41" x2="4639.44" y2="1180.41" style="stroke:#F0F0F0;stroke-width:9.72"/>
	<line x1="4671.84" y1="1180.41" x2="4736.64" y2="1180.41" style="stroke:#F0F0F0;stroke-width:9.72"/>
	<line x1="4769.04" y1="1180.41" x2="4833.84" y2="1180.41" style="stroke:#F0F0F0;stroke-width:9.72"/>
	<line x1="4866.24" y1="1180.41" x2="4931.04" y2="1180.41" style="stroke:#F0F0F0;stroke-width:9.72"/>
	<line x1="4963.44" y1="1180.41" x2="5028.24" y2="1180.41" style="stroke:#F0F0F0;stroke-width:9.72"/>
	<line x1="5060.64" y1="1180.41" x2="5125.44" y2="1180.41" style="stroke:#F0F0F0;stroke-width:9.72"/>
	<line x1="5157.84" y1="1180.41" x2="5222.64" y2="1180.41" style="stroke:#F0F0F0;stroke-width:9.72"/>
	<line x1="5255.04" y1="1180.41" x2="5286.60" y2="1180.41" style="stroke:#F0F0F0;stroke-width:9.72"/>
	<line x1="492.24" y1="976.72" x2="557.04" y2="976.72" style="stroke:#F0F0F0;stroke-width:9.72"/>
	<line x1="589.44" y1="976.72" x2="654.24" y2="976.72" style="stroke:#F0F0F0;stroke-width:9.72"/>
	<line x1="686.64" y1="976.72" x2="751.44" y2="976.72" style="stroke:#F0F0F0;stroke-width:9.72"/>
	<line x1="783.84" y1="976.72" x2="848.64" y2="976.72" style="stroke:#F0F0F0;stroke-width:9.72"/>
	<line x1="881.04" y1="976.72" x2="945.84" y2="976.72" style="stroke:#F0F0F0;stroke-width:9.72"/>
	<line x1="978.24" y1="976.72" x2="1043.04" y2="976.72" style="stroke:#F0F0F0;stroke-width:9.72"/>
	<line x1="1075.44" y1="976.72" x2="1140.24" y2="976.72" style="stroke:#F0F0F0;stroke-width:9.72"/>
	<line x1="1172.64" y1="976.72" x2="1237.44" y2="976.72" style="stroke:#F0F0F0;stroke-width:9.72"/>
	<line x1="1269.84" y1="976.72" x2="1334.64" y2="976.72" style="stroke:#F0F0F0;stroke-width:9.72"/>
	<line x1="1367.04" y1="976.72" x2="1431.84" y2="976.72" style="stroke:#F0F0F0;stroke-width:9.72"/>
	<line x1="1464.24" y1="976.72" x2="1529.04" y2="976.72" style="stroke:#F0F0F0;stroke-width:9.72"/>
	<line x1="1561.44" y1="976.72" x2="1626.24" y2="976.72" style="stroke:#F0F0F0;stroke-width:9.72"/>
	<line x1="1658.64" y1="976.72" x2="1723.44" y2="976.72" style="stroke:#F0F0F0;stroke-width:9.72"/>
	<line x1="1755.84" y1="976.72" x2="1820.64" y2="976.72" style="stroke:#F0F0F0;stroke-width:9.72"/>
	<line x1="1853.04" y1="976.72" x2="1917.84" y2="976.72" style="stroke:#F0F0F0;stroke-width:9.72"/>
	<line x1="1950.24" y1="976.72" x2="2015.04" y2="976.72" style="stroke:#F0F0F0;stroke-width:9.72"/>
	<line x1="2047.44" y1="976.72" x2="2112.24" y2="976.72" style="stroke:#F0F0F0;stroke-width:9.72"/>
	<line x1="2144.64" y1="976.72" x2="2209.44" y2="976.72" style="stroke:#F0F0F0;stroke-width:9.72"/>
	<line x1="2241.84" y1="976.72" x2="2306.64" y2="976.72" style="stroke:#F0F0F0;stroke-width:9.72"/>
	<line x1="2339.04" y1="976.72" x2="2403.84" y2="976.72" style="stroke:#F0F0F0;stroke-width:9.72"/>
	<line x1="2436.24" y1="976.72" x2="2501.04" y2="976.72" style="stroke:#F0F0F0;stroke-width:9.72"/>
	<line x1="2533.44" y1="976.72" x2="2598.24" y2="976.72" style="stroke:#F0F0F0;stroke-width:9.72"/>
	<line x1="2630.64" y1="976.72" x2="2695.44" y2="976.72" style="stroke:#F0F0F0;stroke-width:9.72"/>
	<line x1="2727.84" y1="976.72" x2="2792.64" y2="976.72" style="stroke:#F0F0F0;stroke-width:9.72"/>
	<line x1="2825.04" y1="976.72" x2="2889.84" y2="976.72" style="stroke:#F0F0F0;stroke-width:9.72"/>
	<line x1="2922.24" y1="976.72" x2="2987.04" y2="976.72" style="stroke:#F0F0F0;stroke-width:9.72"/>
	<line x1="3019.44" y1="976.72" x2="3084.24" y2="976.72" style="stroke:#F0F0F0;stroke-width:9.72"/>
	<line x1="3116.64" y1="976.72" x2="3181.44" y2="976.72" style="stroke:#F0F0F0;stroke-width:9.72"/>
	<line x1="3213.84" y1="976.72" x2="3278.64" y2="976.72" style="stroke:#F0F0F0;stroke-width:9.72"/>
	<line x1="3311.04" y1="976.72" x2="3375.84" y2="976.72" style="stroke:#F0F0F0;stroke-width:9.72"/>
	<line x1="3408.24" y1="976.72" x2="3473.04" y2="976.72" style="stroke:#F0F0F0;stroke-width:9.72"/>
	<line x1="3505.44" y1="976.72" x2="3570.24" y2="976.72" style="stroke:#F0F0F0;stroke-width:9.72"/>
	<line x1="3602.64" y1="976.72" x2="3667.44" y2="976.72" style="stroke:#F0F0F0;stroke-width:9.72"/>
	<line x1="3699.84" y1="976.72" x2="3764.64" y2="976.72" style="stroke:#F0F0F0;stroke-width:9.72"/>
	<line x1="3797.04" y1="976.72" x2="3861.84" y2="976.72" style="stroke:#F0F0F0;stroke-width:9.72"/>
	<line x1="3894.24" y1="976.72" x2="3959.04" y2="976.72" style="stroke:#F0F0F0;stroke-width:9.72"/>
	<line x1="3991.44" y1="976.72" x2="4056.24" y2="976.72" style="stroke:#F0F0F0;stroke-width:9.72"/>
	<line x1="4088.64" y1="976.72" x2="4153.44" y2="976.72" style="stroke:#F0F0F0;stroke-width:9.72"/>
	<line x1="4185.84" y1="976.72" x2="4250.64" y2="976.72" style="stroke:#F0F0F0;stroke-width:9.72"/>
	<line x1="4283.04" y1="976.72" x2="4347.84" y2="976.72" style="stroke:#F0F0F0;stroke-width:9.72"/>
	<line x1="4380.24" y1="976.72" x2="4445.04" y2="976.72" style="stroke:#F0F0F0;stroke-width:9.72"/>
	<line x1="4477.44" y1="976.72" x2="4542.24" y2="976.72" style="stroke:#F0F0F0;stroke-width:9.72"/>
	<line x1="4574.64" y1="976.72" x2="4639.44" y2="976.72" style="stroke:#F0F0F0;stroke-width:9.72"/>
	<line x1="4671.84" y1="976.72" x2="4736.64" y2="976.72" style="stroke:#F0F0F0;stroke-width:9.72"/>
	<line x1="4769.04" y1="976.72" x2="4833.84" y2="976.72" style="stroke:#F0F0F0;stroke-width:9.72"/>
	<line x1="4866.24" y1="976.72" x2="4931.04" y2="976.72" style="stroke:#F0F0F0;stroke-width:9.72"/>
	<line x1="4963.44" y1="976.72" x2="5028.24" y2="976.72" style="stroke:#F0F0F0;stroke-width:9.72"/>
	<line x1="5060.64" y1="976.72" x2="5125.44" y2="976.72" style="stroke:#F0F0F0;stroke-width:9.72"/>
	<line x1="5157.84" y1="976.72" x2="5222.64" y2="976.72" style="stroke:#F0F0F0;stroke-width:9.72"/>
	<line x1="5255.04" y1="976.72" x2="5286.60" y2="976.72" style="stroke:#F0F0F0;stroke-width:9.72"/>
	<line x1="492.24" y1="772.88" x2="557.04" y2="772.88" style="stroke:#F0F0F0;stroke-width:9.72"/>
	<line x1="589.44" y1="772.88" x2="654.24" y2="772.88" style="stroke:#F0F0F0;stroke-width:9.72"/>
	<line x1="686.64" y1="772.88" x2="751.44" y2="772.88" style="stroke:#F0F0F0;stroke-width:9.72"/>
	<line x1="783.84" y1="772.88" x2="848.64" y2="772.88" style="stroke:#F0F0F0;stroke-width:9.72"/>
	<line x1="881.04" y1="772.88" x2="945.84" y2="772.88" style="stroke:#F0F0F0;stroke-width:9.72"/>
	<line x1="978.24" y1="772.88" x2="1043.04" y2="772.88" style="stroke:#F0F0F0;stroke-width:9.72"/>
	<line x1="1075.44" y1="772.88" x2="1140.24" y2="772.88" style="stroke:#F0F0F0;stroke-width:9.72"/>
	<line x1="1172.64" y1="772.88" x2="1237.44" y2="772.88" style="stroke:#F0F0F0;stroke-width:9.72"/>
	<line x1="1269.84" y1="772.88" x2="1334.64" y2="772.88" style="stroke:#F0F0F0;stroke-width:9.72"/>
	<line x1="1367.04" y1="772.88" x2="1431.84" y2="772.88" style="stroke:#F0F0F0;stroke-width:9.72"/>
	<line x1="1464.24" y1="772.88" x2="1529.04" y2="772.88" style="stroke:#F0F0F0;stroke-width:9.72"/>
	<line x1="1561.44" y1="772.88" x2="1626.24" y2="772.88" style="stroke:#F0F0F0;stroke-width:9.72"/>
	<line x1="1658.64" y1="772.88" x2="1723.44" y2="772.88" style="stroke:#F0F0F0;stroke-width:9.72"/>
	<line x1="1755.84" y1="772.88" x2="1820.64" y2="772.88" style="stroke:#F0F0F0;stroke-width:9.72"/>
	<line x1="1853.04" y1="772.88" x2="1917.84" y2="772.88" style="stroke:#F0F0F0;stroke-width:9.72"/>
	<line x1="1950.24" y1="772.88" x2="2015.04" y2="772.88" style="stroke:#F0F0F0;stroke-width:9.72"/>
	<line x1="2047.44" y1="772.88" x2="2112.24" y2="772.88" style="stroke:#F0F0F0;stroke-width:9.72"/>
	<line x1="2144.64" y1="772.88" x2="2209.44" y2="772.88" style="stroke:#F0F0F0;stroke-width:9.72"/>
	<line x1="2241.84" y1="772.88" x2="2306.64" y2="772.88" style="stroke:#F0F0F0;stroke-width:9.72"/>
	<line x1="2339.04" y1="772.88" x2="2403.84" y2="772.88" style="stroke:#F0F0F0;stroke-width:9.72"/>
	<line x1="2436.24" y1="772.88" x2="2501.04" y2="772.88" style="stroke:#F0F0F0;stroke-width:9.72"/>
	<line x1="2533.44" y1="772.88" x2="2598.24" y2="772.88" style="stroke:#F0F0F0;stroke-width:9.72"/>
	<line x1="2630.64" y1="772.88" x2="2695.44" y2="772.88" style="stroke:#F0F0F0;stroke-width:9.72"/>
	<line x1="2727.84" y1="772.88" x2="2792.64" y2="772.88" style="stroke:#F0F0F0;stroke-width:9.72"/>
	<line x1="2825.04" y1="772.88" x2="2889.84" y2="772.88" style="stroke:#F0F0F0;stroke-width:9.72"/>
	<line x1="2922.24" y1="772.88" x2="2987.04" y2="772.88" style="stroke:#F0F0F0;stroke-width:9.72"/>
	<line x1="3019.44" y1="772.88" x2="3084.24" y2="772.88" style="stroke:#F0F0F0;stroke-width:9.72"/>
	<line x1="3116.64" y1="772.88" x2="3181.44" y2="772.88" style="stroke:#F0F0F0;stroke-width:9.72"/>
	<line x1="3213.84" y1="772.88" x2="3278.64" y2="772.88" style="stroke:#F0F0F0;stroke-width:9.72"/>
	<line x1="3311.04" y1="772.88" x2="3375.84" y2="772.88" style="stroke:#F0F0F0;stroke-width:9.72"/>
	<line x1="3408.24" y1="772.88" x2="3473.04" y2="772.88" style="stroke:#F0F0F0;stroke-width:9.72"/>
	<line x1="3505.44" y1="772.88" x2="3570.24" y2="772.88" style="stroke:#F0F0F0;stroke-width:9.72"/>
	<line x1="3602.64" y1="772.88" x2="3667.44" y2="772.88" style="stroke:#F0F0F0;stroke-width:9.72"/>
	<line x1="3699.84" y1="772.88" x2="3764.64" y2="772.88" style="stroke:#F0F0F0;stroke-width:9.72"/>
	<line x1="3797.04" y1="772.88" x2="3861.84" y2="772.88" style="stroke:#F0F0F0;stroke-width:9.72"/>
	<line x1="3894.24" y1="772.88" x2="3959.04" y2="772.88" style="stroke:#F0F0F0;stroke-width:9.72"/>
	<line x1="3991.44" y1="772.88" x2="4056.24" y2="772.88" style="stroke:#F0F0F0;stroke-width:9.72"/>
	<line x1="4088.64" y1="772.88" x2="4153.44" y2="772.88" style="stroke:#F0F0F0;stroke-width:9.72"/>
	<line x1="4185.84" y1="772.88" x2="4250.64" y2="772.88" style="stroke:#F0F0F0;stroke-width:9.72"/>
	<line x1="4283.04" y1="772.88" x2="4347.84" y2="772.88" style="stroke:#F0F0F0;stroke-width:9.72"/>
	<line x1="4380.24" y1="772.88" x2="4445.04" y2="772.88" style="stroke:#F0F0F0;stroke-width:9.72"/>
	<line x1="4477.44" y1="772.88" x2="4542.24" y2="772.88" style="stroke:#F0F0F0;stroke-width:9.72"/>
	<line x1="4574.64" y1="772.88" x2="4639.44" y2="772.88" style="stroke:#F0F0F0;stroke-width:9.72"/>
	<line x1="4671.84" y1="772.88" x2="4736.64" y2="772.88" style="stroke:#F0F0F0;stroke-width:9.72"/>
	<line x1="4769.04" y1="772.88" x2="4833.84" y2="772.88" style="stroke:#F0F0F0;stroke-width:9.72"/>
	<line x1="4866.24" y1="772.88" x2="4931.04" y2="772.88" style="stroke:#F0F0F0;stroke-width:9.72"/>
	<line x1="4963.44" y1="772.88" x2="5028.24" y2="772.88" style="stroke:#F0F0F0;stroke-width:9.72"/>
	<line x1="5060.64" y1="772.88" x2="5125.44" y2="772.88" style="stroke:#F0F0F0;stroke-width:9.72"/>
	<line x1="5157.84" y1="772.88" x2="5222.64" y2="772.88" style="stroke:#F0F0F0;stroke-width:9.72"/>
	<line x1="5255.04" y1="772.88" x2="5286.60" y2="772.88" style="stroke:#F0F0F0;stroke-width:9.72"/>
	<line x1="492.24" y1="569.03" x2="557.04" y2="569.03" style="stroke:#F0F0F0;stroke-width:9.72"/>
	<line x1="589.44" y1="569.03" x2="654.24" y2="569.03" style="stroke:#F0F0F0;stroke-width:9.72"/>
	<line x1="686.64" y1="569.03" x2="751.44" y2="569.03" style="stroke:#F0F0F0;stroke-width:9.72"/>
	<line x1="783.84" y1="569.03" x2="848.64" y2="569.03" style="stroke:#F0F0F0;stroke-width:9.72"/>
	<line x1="881.04" y1="569.03" x2="945.84" y2="569.03" style="stroke:#F0F0F0;stroke-width:9.72"/>
	<line x1="978.24" y1="569.03" x2="1043.04" y2="569.03" style="stroke:#F0F0F0;stroke-width:9.72"/>
	<line x1="1075.44" y1="569.03" x2="1140.24" y2="569.03" style="stroke:#F0F0F0;stroke-width:9.72"/>
	<line x1="1172.64" y1="569.03" x2="1237.44" y2="569.03" style="stroke:#F0F0F0;stroke-width:9.72"/>
	<line x1="1269.84" y1="569.03" x2="1334.64" y2="569.03" style="stroke:#F0F0F0;stroke-width:9.72"/>
	<line x1="1367.04" y1="569.03" x2="1431.84" y2="569.03" style="stroke:#F0F0F0;stroke-width:9.72"/>
	<line x1="1464.24" y1="569.03" x2="1529.04" y2="569.03" style="stroke:#F0F0F0;stroke-width:9.72"/>
	<line x1="1561.44" y1="569.03" x2="1626.24" y2="569.03" style="stroke:#F0F0F0;stroke-width:9.72"/>
	<line x1="1658.64" y1="569.03" x2="1723.44" y2="569.03" style="stroke:#F0F0F0;stroke-width:9.72"/>
	<line x1="1755.84" y1="569.03" x2="1820.64" y2="569.03" style="stroke:#F0F0F0;stroke-width:9.72"/>
	<line x1="1853.04" y1="569.03" x2="1917.84" y2="569.03" style="stroke:#F0F0F0;stroke-width:9.72"/>
	<line x1="1950.24" y1="569.03" x2="2015.04" y2="569.03" style="stroke:#F0F0F0;stroke-width:9.72"/>
	<line x1="2047.44" y1="569.03" x2="2112.24" y2="569.03" style="stroke:#F0F0F0;stroke-width:9.72"/>
	<line x1="2144.64" y1="569.03" x2="2209.44" y2="569.03" style="stroke:#F0F0F0;stroke-width:9.72"/>
	<line x1="2241.84" y1="569.03" x2="2306.64" y2="569.03" style="stroke:#F0F0F0;stroke-width:9.72"/>
	<line x1="2339.04" y1="569.03" x2="2403.84" y2="569.03" style="stroke:#F0F0F0;stroke-width:9.72"/>
	<line x1="2436.24" y1="569.03" x2="2501.04" y2="569.03" style="stroke:#F0F0F0;stroke-width:9.72"/>
	<line x1="2533.44" y1="569.03" x2="2598.24" y2="569.03" style="stroke:#F0F0F0;stroke-width:9.72"/>
	<line x1="2630.64" y1="569.03" x2="2695.44" y2="569.03" style="stroke:#F0F0F0;stroke-width:9.72"/>
	<line x1="2727.84" y1="569.03" x2="2792.64" y2="569.03" style="stroke:#F0F0F0;stroke-width:9.72"/>
	<line x1="2825.04" y1="569.03" x2="2889.84" y2="569.03" style="stroke:#F0F0F0;stroke-width:9.72"/>
	<line x1="2922.24" y1="569.03" x2="2987.04" y2="569.03" style="stroke:#F0F0F0;stroke-width:9.72"/>
	<line x1="3019.44" y1="569.03" x2="3084.24" y2="569.03" style="stroke:#F0F0F0;stroke-width:9.72"/>
	<line x1="3116.64" y1="569.03" x2="3181.44" y2="569.03" style="stroke:#F0F0F0;stroke-width:9.72"/>
	<line x1="3213.84" y1="569.03" x2="3278.64" y2="569.03" style="stroke:#F0F0F0;stroke-width:9.72"/>
	<line x1="3311.04" y1="569.03" x2="3375.84" y2="569.03" style="stroke:#F0F0F0;stroke-width:9.72"/>
	<line x1="3408.24" y1="569.03" x2="3473.04" y2="569.03" style="stroke:#F0F0F0;stroke-width:9.72"/>
	<line x1="3505.44" y1="569.03" x2="3570.24" y2="569.03" style="stroke:#F0F0F0;stroke-width:9.72"/>
	<line x1="3602.64" y1="569.03" x2="3667.44" y2="569.03" style="stroke:#F0F0F0;stroke-width:9.72"/>
	<line x1="3699.84" y1="569.03" x2="3764.64" y2="569.03" style="stroke:#F0F0F0;stroke-width:9.72"/>
	<line x1="3797.04" y1="569.03" x2="3861.84" y2="569.03" style="stroke:#F0F0F0;stroke-width:9.72"/>
	<line x1="3894.24" y1="569.03" x2="3959.04" y2="569.03" style="stroke:#F0F0F0;stroke-width:9.72"/>
	<line x1="3991.44" y1="569.03" x2="4056.24" y2="569.03" style="stroke:#F0F0F0;stroke-width:9.72"/>
	<line x1="4088.64" y1="569.03" x2="4153.44" y2="569.03" style="stroke:#F0F0F0;stroke-width:9.72"/>
	<line x1="4185.84" y1="569.03" x2="4250.64" y2="569.03" style="stroke:#F0F0F0;stroke-width:9.72"/>
	<line x1="4283.04" y1="569.03" x2="4347.84" y2="569.03" style="stroke:#F0F0F0;stroke-width:9.72"/>
	<line x1="4380.24" y1="569.03" x2="4445.04" y2="569.03" style="stroke:#F0F0F0;stroke-width:9.72"/>
	<line x1="4477.44" y1="569.03" x2="4542.24" y2="569.03" style="stroke:#F0F0F0;stroke-width:9.72"/>
	<line x1="4574.64" y1="569.03" x2="4639.44" y2="569.03" style="stroke:#F0F0F0;stroke-width:9.72"/>
	<line x1="4671.84" y1="569.03" x2="4736.64" y2="569.03" style="stroke:#F0F0F0;stroke-width:9.72"/>
	<line x1="4769.04" y1="569.03" x2="4833.84" y2="569.03" style="stroke:#F0F0F0;stroke-width:9.72"/>
	<line x1="4866.24" y1="569.03" x2="4931.04" y2="569.03" style="stroke:#F0F0F0;stroke-width:9.72"/>
	<line x1="4963.44" y1="569.03" x2="5028.24" y2="569.03" style="stroke:#F0F0F0;stroke-width:9.72"/>
	<line x1="5060.64" y1="569.03" x2="5125.44" y2="569.03" style="stroke:#F0F0F0;stroke-width:9.72"/>
	<line x1="5157.84" y1="569.03" x2="5222.64" y2="569.03" style="stroke:#F0F0F0;stroke-width:9.72"/>
	<line x1="5255.04" y1="569.03" x2="5286.60" y2="569.03" style="stroke:#F0F0F0;stroke-width:9.72"/>
	<line x1="492.24" y1="365.34" x2="557.04" y2="365.34" style="stroke:#F0F0F0;stroke-width:9.72"/>
	<line x1="589.44" y1="365.34" x2="654.24" y2="365.34" style="stroke:#F0F0F0;stroke-width:9.72"/>
	<line x1="686.64" y1="365.34" x2="751.44" y2="365.34" style="stroke:#F0F0F0;stroke-width:9.72"/>
	<line x1="783.84" y1="365.34" x2="848.64" y2="365.34" style="stroke:#F0F0F0;stroke-width:9.72"/>
	<line x1="881.04" y1="365.34" x2="945.84" y2="365.34" style="stroke:#F0F0F0;stroke-width:9.72"/>
	<line x1="978.24" y1="365.34" x2="1043.04" y2="365.34" style="stroke:#F0F0F0;stroke-width:9.72"/>
	<line x1="1075.44" y1="365.34" x2="1140.24" y2="365.34" style="stroke:#F0F0F0;stroke-width:9.72"/>
	<line x1="1172.64" y1="365.34" x2="1237.44" y2="365.34" style="stroke:#F0F0F0;stroke-width:9.72"/>
	<line x1="1269.84" y1="365.34" x2="1334.64" y2="365.34" style="stroke:#F0F0F0;stroke-width:9.72"/>
	<line x1="1367.04" y1="365.34" x2="1431.84" y2="365.34" style="stroke:#F0F0F0;stroke-width:9.72"/>
	<line x1="1464.24" y1="365.34" x2="1529.04" y2="365.34" style="stroke:#F0F0F0;stroke-width:9.72"/>
	<line x1="1561.44" y1="365.34" x2="1626.24" y2="365.34" style="stroke:#F0F0F0;stroke-width:9.72"/>
	<line x1="1658.64" y1="365.34" x2="1723.44" y2="365.34" style="stroke:#F0F0F0;stroke-width:9.72"/>
	<line x1="1755.84" y1="365.34" x2="1820.64" y2="365.34" style="stroke:#F0F0F0;stroke-width:9.72"/>
	<line x1="1853.04" y1="365.34" x2="1917.84" y2="365.34" style="stroke:#F0F0F0;stroke-width:9.72"/>
	<line x1="1950.24" y1="365.34" x2="2015.04" y2="365.34" style="stroke:#F0F0F0;stroke-width:9.72"/>
	<line x1="2047.44" y1="365.34" x2="2112.24" y2="365.34" style="stroke:#F0F0F0;stroke-width:9.72"/>
	<line x1="2144.64" y1="365.34" x2="2209.44" y2="365.34" style="stroke:#F0F0F0;stroke-width:9.72"/>
	<line x1="2241.84" y1="365.34" x2="2306.64" y2="365.34" style="stroke:#F0F0F0;stroke-width:9.72"/>
	<line x1="2339.04" y1="365.34" x2="2403.84" y2="365.34" style="stroke:#F0F0F0;stroke-width:9.72"/>
	<line x1="2436.24" y1="365.34" x2="2501.04" y2="365.34" style="stroke:#F0F0F0;stroke-width:9.72"/>
	<line x1="2533.44" y1="365.34" x2="2598.24" y2="365.34" style="stroke:#F0F0F0;stroke-width:9.72"/>
	<line x1="2630.64" y1="365.34" x2="2695.44" y2="365.34" style="stroke:#F0F0F0;stroke-width:9.72"/>
	<line x1="2727.84" y1="365.34" x2="2792.64" y2="365.34" style="stroke:#F0F0F0;stroke-width:9.72"/>
	<line x1="2825.04" y1="365.34" x2="2889.84" y2="365.34" style="stroke:#F0F0F0;stroke-width:9.72"/>
	<line x1="2922.24" y1="365.34" x2="2987.04" y2="365.34" style="stroke:#F0F0F0;stroke-width:9.72"/>
	<line x1="3019.44" y1="365.34" x2="3084.24" y2="365.34" style="stroke:#F0F0F0;stroke-width:9.72"/>
	<line x1="3116.64" y1="365.34" x2="3181.44" y2="365.34" style="stroke:#F0F0F0;stroke-width:9.72"/>
	<line x1="3213.84" y1="365.34" x2="3278.64" y2="365.34" style="stroke:#F0F0F0;stroke-width:9.72"/>
	<line x1="3311.04" y1="365.34" x2="3375.84" y2="365.34" style="stroke:#F0F0F0;stroke-width:9.72"/>
	<line x1="3408.24" y1="365.34" x2="3473.04" y2="365.34" style="stroke:#F0F0F0;stroke-width:9.72"/>
	<line x1="3505.44" y1="365.34" x2="3570.24" y2="365.34" style="stroke:#F0F0F0;stroke-width:9.72"/>
	<line x1="3602.64" y1="365.34" x2="3667.44" y2="365.34" style="stroke:#F0F0F0;stroke-width:9.72"/>
	<line x1="3699.84" y1="365.34" x2="3764.64" y2="365.34" style="stroke:#F0F0F0;stroke-width:9.72"/>
	<line x1="3797.04" y1="365.34" x2="3861.84" y2="365.34" style="stroke:#F0F0F0;stroke-width:9.72"/>
	<line x1="3894.24" y1="365.34" x2="3959.04" y2="365.34" style="stroke:#F0F0F0;stroke-width:9.72"/>
	<line x1="3991.44" y1="365.34" x2="4056.24" y2="365.34" style="stroke:#F0F0F0;stroke-width:9.72"/>
	<line x1="4088.64" y1="365.34" x2="4153.44" y2="365.34" style="stroke:#F0F0F0;stroke-width:9.72"/>
	<line x1="4185.84" y1="365.34" x2="4250.64" y2="365.34" style="stroke:#F0F0F0;stroke-width:9.72"/>
	<line x1="4283.04" y1="365.34" x2="4347.84" y2="365.34" style="stroke:#F0F0F0;stroke-width:9.72"/>
	<line x1="4380.24" y1="365.34" x2="4445.04" y2="365.34" style="stroke:#F0F0F0;stroke-width:9.72"/>
	<line x1="4477.44" y1="365.34" x2="4542.24" y2="365.34" style="stroke:#F0F0F0;stroke-width:9.72"/>
	<line x1="4574.64" y1="365.34" x2="4639.44" y2="365.34" style="stroke:#F0F0F0;stroke-width:9.72"/>
	<line x1="4671.84" y1="365.34" x2="4736.64" y2="365.34" style="stroke:#F0F0F0;stroke-width:9.72"/>
	<line x1="4769.04" y1="365.34" x2="4833.84" y2="365.34" style="stroke:#F0F0F0;stroke-width:9.72"/>
	<line x1="4866.24" y1="365.34" x2="4931.04" y2="365.34" style="stroke:#F0F0F0;stroke-width:9.72"/>
	<line x1="4963.44" y1="365.34" x2="5028.24" y2="365.34" style="stroke:#F0F0F0;stroke-width:9.72"/>
	<line x1="5060.64" y1="365.34" x2="5125.44" y2="365.34" style="stroke:#F0F0F0;stroke-width:9.72"/>
	<line x1="5157.84" y1="365.34" x2="5222.64" y2="365.34" style="stroke:#F0F0F0;stroke-width:9.72"/>
	<line x1="5255.04" y1="365.34" x2="5286.60" y2="365.34" style="stroke:#F0F0F0;stroke-width:9.72"/>
	<line x1="563.46" y1="1251.79" x2="563.46" y2="1186.99" style="stroke:#F0F0F0;stroke-width:9.72"/>
	<line x1="563.46" y1="1154.59" x2="563.46" y2="1089.79" style="stroke:#F0F0F0;stroke-width:9.72"/>
	<line x1="563.46" y1="1057.39" x2="563.46" y2="992.59" style="stroke:#F0F0F0;stroke-width:9.72"/>
	<line x1="563.46" y1="960.19" x2="563.46" y2="895.39" style="stroke:#F0F0F0;stroke-width:9.72"/>
	<line x1="563.46" y1="862.99" x2="563.46" y2="798.19" style="stroke:#F0F0F0;stroke-width:9.72"/>
	<line x1="563.46" y1="765.79" x2="563.46" y2="700.99" style="stroke:#F0F0F0;stroke-width:9.72"/>
	<line x1="563.46" y1="668.59" x2="563.46" y2="603.79" style="stroke:#F0F0F0;stroke-width:9.72"/>
	<line x1="563.46" y1="571.39" x2="563.46" y2="506.59" style="stroke:#F0F0F0;stroke-width:9.72"/>
	<line x1="563.46" y1="474.19" x2="563.46" y2="409.39" style="stroke:#F0F0F0;stroke-width:9.72"/>
	<line x1="563.46" y1="376.99" x2="563.46" y2="312.19" style="stroke:#F0F0F0;stroke-width:9.72"/>
	<line x1="1726.48" y1="1251.79" x2="1726.48" y2="1186.99" style="stroke:#F0F0F0;stroke-width:9.72"/>
	<line x1="1726.48" y1="1154.59" x2="1726.48" y2="1089.79" style="stroke:#F0F0F0;stroke-width:9.72"/>
	<line x1="1726.48" y1="1057.39" x2="1726.48" y2="992.59" style="stroke:#F0F0F0;stroke-width:9.72"/>
	<line x1="1726.48" y1="960.19" x2="1726.48" y2="895.39" style="stroke:#F0F0F0;stroke-width:9.72"/>
	<line x1="1726.48" y1="862.99" x2="1726.48" y2="798.19" style="stroke:#F0F0F0;stroke-width:9.72"/>
	<line x1="1726.48" y1="765.79" x2="1726.48" y2="700.99" style="stroke:#F0F0F0;stroke-width:9.72"/>
	<line x1="1726.48" y1="668.59" x2="1726.48" y2="603.79" style="stroke:#F0F0F0;stroke-width:9.72"/>
	<line x1="1726.48" y1="571.39" x2="1726.48" y2="506.59" style="stroke:#F0F0F0;stroke-width:9.72"/>
	<line x1="1726.48" y1="474.19" x2="1726.48" y2="409.39" style="stroke:#F0F0F0;stroke-width:9.72"/>
	<line x1="1726.48" y1="376.99" x2="1726.48" y2="312.19" style="stroke:#F0F0F0;stroke-width:9.72"/>
	<line x1="2889.34" y1="1251.79" x2="2889.34" y2="1186.99" style="stroke:#F0F0F0;stroke-width:9.72"/>
	<line x1="2889.34" y1="1154.59" x2="2889.34" y2="1089.79" style="stroke:#F0F0F0;stroke-width:9.72"/>
	<line x1="2889.34" y1="1057.39" x2="2889.34" y2="992.59" style="stroke:#F0F0F0;stroke-width:9.72"/>
	<line x1="2889.34" y1="960.19" x2="2889.34" y2="895.39" style="stroke:#F0F0F0;stroke-width:9.72"/>
	<line x1="2889.34" y1="862.99" x2="2889.34" y2="798.19" style="stroke:#F0F0F0;stroke-width:9.72"/>
	<line x1="2889.34" y1="765.79" x2="2889.34" y2="700.99" style="stroke:#F0F0F0;stroke-width:9.72"/>
	<line x1="2889.34" y1="668.59" x2="2889.34" y2="603.79" style="stroke:#F0F0F0;stroke-width:9.72"/>
	<line x1="2889.34" y1="571.39" x2="2889.34" y2="506.59" style="stroke:#F0F0F0;stroke-width:9.72"/>
	<line x1="2889.34" y1="474.19" x2="2889.34" y2="409.39" style="stroke:#F0F0F0;stroke-width:9.72"/>
	<line x1="2889.34" y1="376.99" x2="2889.34" y2="312.19" style="stroke:#F0F0F0;stroke-width:9.72"/>
	<line x1="4052.36" y1="1251.79" x2="4052.36" y2="1186.99" style="stroke:#F0F0F0;stroke-width:9.72"/>
	<line x1="4052.36" y1="1154.59" x2="4052.36" y2="1089.79" style="stroke:#F0F0F0;stroke-width:9.72"/>
	<line x1="4052.36" y1="1057.39" x2="4052.36" y2="992.59" style="stroke:#F0F0F0;stroke-width:9.72"/>
	<line x1="4052.36" y1="960.19" x2="4052.36" y2="895.39" style="stroke:#F0F0F0;stroke-width:9.72"/>
	<line x1="4052.36" y1="862.99" x2="4052.36" y2="798.19" style="stroke:#F0F0F0;stroke-width:9.72"/>
	<line x1="4052.36" y1="765.79" x2="4052.36" y2="700.99" style="stroke:#F0F0F0;stroke-width:9.72"/>
	<line x1="4052.36" y1="668.59" x2="4052.36" y2="603.79" style="stroke:#F0F0F0;stroke-width:9.72"/>
	<line x1="4052.36" y1="571.39" x2="4052.36" y2="506.59" style="stroke:#F0F0F0;stroke-width:9.72"/>
	<line x1="4052.36" y1="474.19" x2="4052.36" y2="409.39" style="stroke:#F0F0F0;stroke-width:9.72"/>
	<line x1="4052.36" y1="376.99" x2="4052.36" y2="312.19" style="stroke:#F0F0F0;stroke-width:9.72"/>
	<line x1="5215.39" y1="1251.79" x2="5215.39" y2="1186.99" style="stroke:#F0F0F0;stroke-width:9.72"/>
	<line x1="5215.39" y1="1154.59" x2="5215.39" y2="1089.79" style="stroke:#F0F0F0;stroke-width:9.72"/>
	<line x1="5215.39" y1="1057.39" x2="5215.39" y2="992.59" style="stroke:#F0F0F0;stroke-width:9.72"/>
	<line x1="5215.39" y1="960.19" x2="5215.39" y2="895.39" style="stroke:#F0F0F0;stroke-width:9.72"/>
	<line x1="5215.39" y1="862.99" x2="5215.39" y2="798.19" style="stroke:#F0F0F0;stroke-width:9.72"/>
	<line x1="5215.39" y1="765.79" x2="5215.39" y2="700.99" style="stroke:#F0F0F0;stroke-width:9.72"/>
	<line x1="5215.39" y1="668.59" x2="5215.39" y2="603.79" style="stroke:#F0F0F0;stroke-width:9.72"/>
	<line x1="5215.39" y1="571.39" x2="5215.39" y2="506.59" style="stroke:#F0F0F0;stroke-width:9.72"/>
	<line x1="5215.39" y1="474.19" x2="5215.39" y2="409.39" style="stroke:#F0F0F0;stroke-width:9.72"/>
	<line x1="5215.39" y1="376.99" x2="5215.39" y2="312.19" style="stroke:#F0F0F0;stroke-width:9.72"/>
	<line x1="563.46" y1="1123.03" x2="563.46" y2="1010.64" style="stroke:#1A85FF;stroke-width:9.72"/>
	<line x1="546.58" y1="1010.64" x2="580.33" y2="1010.64" stroke-linecap="round" style="stroke:#1A85FF;stroke-width:9.72"/>
	<line x1="546.58" y1="1123.03" x2="580.33" y2="1123.03" stroke-linecap="round" style="stroke:#1A85FF;stroke-width:9.72"/>
	<line x1="1726.48" y1="970.99" x2="1726.48" y2="885.77" style="stroke:#1A85FF;stroke-width:9.72"/>
	<line x1="1709.61" y1="885.77" x2="1743.36" y2="885.77" stroke-linecap="round" style="stroke:#1A85FF;stroke-width:9.72"/>
	<line x1="1709.61" y1="970.99" x2="1743.36" y2="970.99" stroke-linecap="round" style="stroke:#1A85FF;stroke-width:9.72"/>
	<line x1="2889.34" y1="999.17" x2="2889.34" y2="909.22" style="stroke:#1A85FF;stroke-width:9.72"/>
	<line x1="2872.46" y1="909.22" x2="2906.21" y2="909.22" stroke-linecap="round" style="stroke:#1A85FF;stroke-width:9.72"/>
	<line x1="2872.46" y1="999.17" x2="2906.21" y2="999.17" stroke-linecap="round" style="stroke:#1A85FF;stroke-width:9.72"/>
	<line x1="4052.36" y1="828.39" x2="4052.36" y2="710.44" style="stroke:#1A85FF;stroke-width:9.72"/>
	<line x1="4035.49" y1="710.44" x2="4069.24" y2="710.44" stroke-linecap="round" style="stroke:#1A85FF;stroke-width:9.72"/>
	<line x1="4035.49" y1="828.39" x2="4069.24" y2="828.39" stroke-linecap="round" style="stroke:#1A85FF;stroke-width:9.72"/>
	<line x1="5215.39" y1="655.93" x2="5215.39" y2="402.81" style="stroke:#1A85FF;stroke-width:9.72"/>
	<line x1="5198.51" y1="402.81" x2="5232.26" y2="402.81" stroke-linecap="round" style="stroke:#1A85FF;stroke-width:9.72"/>
	<line x1="5198.51" y1="655.93" x2="5232.26" y2="655.93" stroke-linecap="round" style="stroke:#1A85FF;stroke-width:9.72"/>
	<path d=" M563.46 1067.01 L1726.31 928.46 L2889.34 954.28 L4052.36 769.50 L5215.22 529.37" stroke-linejoin="round" style="fill:none;stroke:#1A85FF;stroke-width:9.72"/>
	<circle cx="563.46" cy="1067.01" r="21.74" style="fill:#1A85FF"/>
	<circle cx="563.46" cy="1067.01" r="16.88" style="fill:none;stroke:#1A85FF;stroke-width:9.72"/>
	<circle cx="1726.31" cy="928.46" r="21.74" style="fill:#1A85FF"/>
	<circle cx="1726.31" cy="928.46" r="16.88" style="fill:none;stroke:#1A85FF;stroke-width:9.72"/>
	<circle cx="2889.34" cy="954.28" r="21.74" style="fill:#1A85FF"/>
	<circle cx="2889.34" cy="954.28" r="16.88" style="fill:none;stroke:#1A85FF;stroke-width:9.72"/>
	<circle cx="4052.36" cy="769.50" r="21.74" style="fill:#1A85FF"/>
	<circle cx="4052.36" cy="769.50" r="16.88" style="fill:none;stroke:#1A85FF;stroke-width:9.72"/>
	<circle cx="5215.22" cy="529.37" r="21.74" style="fill:#1A85FF"/>
	<circle cx="5215.22" cy="529.37" r="16.88" style="fill:none;stroke:#1A85FF;stroke-width:9.72"/>
	<line x1="492.24" y1="1251.79" x2="492.24" y2="293.96" style="stroke:#000000;stroke-width:6.48"/>
	<line x1="492.24" y1="1180.41" x2="447.19" y2="1180.41" style="stroke:#000000;stroke-width:6.48"/>
	<text x="424.74" y="1219.84" style="font-family:'Helvetica';font-size:112.56px;fill:#000000" text-anchor="end">.4</text>
	<line x1="492.24" y1="976.72" x2="447.19" y2="976.72" style="stroke:#000000;stroke-width:6.48"/>
	<text x="424.74" y="1016.16" style="font-family:'Helvetica';font-size:112.56px;fill:#000000" text-anchor="end">.5</text>
	<line x1="492.24" y1="772.88" x2="447.19" y2="772.88" style="stroke:#000000;stroke-width:6.48"/>
	<text x="424.74" y="812.31" style="font-family:'Helvetica';font-size:112.56px;fill:#000000" text-anchor="end">.6</text>
	<line x1="492.24" y1="569.03" x2="447.19" y2="569.03" style="stroke:#000000;stroke-width:6.48"/>
	<text x="424.74" y="608.46" style="font-family:'Helvetica';font-size:112.56px;fill:#000000" text-anchor="end">.7</text>
	<line x1="492.24" y1="365.34" x2="447.19" y2="365.34" style="stroke:#000000;stroke-width:6.48"/>
	<text x="424.74" y="404.78" style="font-family:'Helvetica';font-size:112.56px;fill:#000000" text-anchor="end">.8</text>
	<text x="214.55" y="772.88" style="font-family:'Helvetica';font-size:112.56px;fill:#000000" transform="rotate(-90 214.55,772.88)" text-anchor="middle">Pr(Supervivencia)</text>
	<line x1="492.24" y1="1251.79" x2="5286.60" y2="1251.79" style="stroke:#000000;stroke-width:6.48"/>
	<line x1="563.46" y1="1251.79" x2="563.46" y2="1296.68" style="stroke:#000000;stroke-width:6.48"/>
	<text x="591.34" y="1347.17" style="font-family:'Helvetica';font-size:112.56px;fill:#000000" transform="rotate(-45 591.34,1347.17)" text-anchor="end">Ninguno</text>
	<line x1="1726.48" y1="1251.79" x2="1726.48" y2="1296.68" style="stroke:#000000;stroke-width:6.48"/>
	<text x="1754.37" y="1347.17" style="font-family:'Helvetica';font-size:112.56px;fill:#000000" transform="rotate(-45 1754.37,1347.17)" text-anchor="end">Nuevo Régimen Único Simplificado (RUS)</text>
	<line x1="2889.34" y1="1251.79" x2="2889.34" y2="1296.68" style="stroke:#000000;stroke-width:6.48"/>
	<text x="2917.22" y="1347.17" style="font-family:'Helvetica';font-size:112.56px;fill:#000000" transform="rotate(-45 2917.22,1347.17)" text-anchor="end">Régimen Especial de Renta (RER)</text>
	<line x1="4052.36" y1="1251.79" x2="4052.36" y2="1296.68" style="stroke:#000000;stroke-width:6.48"/>
	<text x="4080.25" y="1347.17" style="font-family:'Helvetica';font-size:112.56px;fill:#000000" transform="rotate(-45 4080.25,1347.17)" text-anchor="end">Régimen MYPE Tributario (RMT)</text>
	<line x1="5215.39" y1="1251.79" x2="5215.39" y2="1296.68" style="stroke:#000000;stroke-width:6.48"/>
	<text x="5243.27" y="1347.17" style="font-family:'Helvetica';font-size:112.56px;fill:#000000" transform="rotate(-45 5243.27,1347.17)" text-anchor="end">Régimen General (RG)</text>
	<text x="2889.34" y="3070.31" style="font-family:'Helvetica';font-size:112.56px;fill:#000000" text-anchor="middle">Régimen Tributario</text>
	<text x="2700.00" y="231.95" style="font-family:'Helvetica';font-size:141.75px;fill:#000000" text-anchor="middle">Probabilidad de supervivencia por régimen tributario</text>
</svg>
